HIERARCHY
ROOT Hips
{
  OFFSET 43.0842 91.1655 101.099
  CHANNELS 6 Xposition Yposition Zposition Zrotation Xrotation Yrotation
  JOINT LeftUpLeg
  {
    OFFSET 8.64259 1.95398 -2.38835
    CHANNELS 3 Zrotation Xrotation Yrotation
    JOINT LeftLeg
    {
      OFFSET 43.7702 0 0
      CHANNELS 3 Zrotation Xrotation Yrotation
      JOINT LeftFoot
      {
        OFFSET 40.6238 0 0
        CHANNELS 3 Zrotation Xrotation Yrotation
        JOINT LeftToeBase
        {
          OFFSET 12.7242 0 0
          CHANNELS 3 Zrotation Xrotation Yrotation
          End Site
          {
            OFFSET 0 0 0
          }
        }
      }
    }
  }
  JOINT RightUpLeg
  {
    OFFSET -8.2249 1.95398 -2.59336
    CHANNELS 3 Zrotation Xrotation Yrotation
    JOINT RightLeg
    {
      OFFSET 43.5653 0 0
      CHANNELS 3 Zrotation Xrotation Yrotation
      JOINT RightFoot
      {
        OFFSET 40.6238 0 0
        CHANNELS 3 Zrotation Xrotation Yrotation
        JOINT RightToeBase
        {
          OFFSET 12.7242 0 0
          CHANNELS 3 Zrotation Xrotation Yrotation
          End Site
          {
            OFFSET 0 0 0
          }
        }
      }
    }
  }
  JOINT Spine
  {
    OFFSET 0.165834 0.87714 6.61349
    CHANNELS 3 Zrotation Xrotation Yrotation
    JOINT Spine1
    {
      OFFSET 7.38963 1.71661e-005 0
      CHANNELS 3 Zrotation Xrotation Yrotation
      JOINT Spine2
      {
        OFFSET 11.9445 1.14441e-005 0
        CHANNELS 3 Zrotation Xrotation Yrotation
        JOINT Spine3
        {
          OFFSET 14.7254 4.19617e-005 0
          CHANNELS 3 Zrotation Xrotation Yrotation
          JOINT Spine4
          {
            OFFSET 10.9679 0 0
            CHANNELS 3 Zrotation Xrotation Yrotation
            JOINT RightShoulder
            {
              OFFSET 2.46616 -1.6653 3.69651
              CHANNELS 3 Zrotation Xrotation Yrotation
              JOINT RightArm
              {
                OFFSET 13.0012 0 0
                CHANNELS 3 Zrotation Xrotation Yrotation
                JOINT RightForeArm
                {
                  OFFSET 28.7848 1.52588e-005 0
                  CHANNELS 3 Zrotation Xrotation Yrotation
                  JOINT RightHand
                  {
                    OFFSET 26.5688 1.52588e-005 0
                    CHANNELS 3 Zrotation Xrotation Yrotation
                    End Site
                    {
                      OFFSET 0 0 0
                    }
                  }
                }
              }
            }
            JOINT LeftShoulder
            {
              OFFSET 2.38034 -1.29275 -3.7523
              CHANNELS 3 Zrotation Xrotation Yrotation
              JOINT LeftArm
              {
                OFFSET 16.3182 6.10351e-005 0
                CHANNELS 3 Zrotation Xrotation Yrotation
                JOINT LeftForeArm
                {
                  OFFSET 27.0901 0 0
                  CHANNELS 3 Zrotation Xrotation Yrotation
                  JOINT LeftHand
                  {
                    OFFSET 24.5451 1.52588e-005 0
                    CHANNELS 3 Zrotation Xrotation Yrotation
                    End Site
                    {
                      OFFSET 0 0 0
                    }
                  }
                }
              }
            }
            JOINT Neck
            {
              OFFSET 5.0226 -0.0266342 0
              CHANNELS 3 Zrotation Xrotation Yrotation
              JOINT Head
              {
                OFFSET 6.69364 2.86102e-005 0
                CHANNELS 3 Zrotation Xrotation Yrotation
                End Site
                {
                  OFFSET 0 0 0
                }
              }
            }
          }
        }
      }
    }
  }
}
MOTION
Frames:	15
Frame Time:	0.0333333
32.3862 92.284 158.687 99.1121 -56.8213 100.579 -172.45 6.18898 97.6878 -29.0897 18.6439 -0.761438 65.5007 5.71954 14.7907 35.766 2.4916 12.0453 172.403 18.0602 79.6065 -20.3545 -0.386076 -0.140074 58.0255 1.0277 -2.22087 29.6766 -1.12324 1.76254 -0.247358 6.99527 -90.3543 12.8815 -0.660755 -0.627468 1.21063 -0.687739 -0.597784 -21.324 -0.441642 -0.79704 -1.31138 -0.441639 -0.79704 89.0314 -58.6698 -100.315 14.8063 36.9853 -44.8186 -16.0174 -4.91374 -84.9509 -1.69259 0.693717 0.20991 -98.9029 -53.749 66.8738 -6.59457 20.4478 -38.3307 9.23536 1.64543 -109.254 6.70581 0.00978262 3.38698 -12.3485 -18.4932 -15.1707 -7.83957 -18.116 0.574046 
32.2233 92.2466 158.685 97.1085 -57.2739 99.343 -172.384 7.66228 98.115 -29.3982 18.4957 -0.950226 65.5853 5.74061 14.674 35.764 2.50615 12.0161 173.149 18.9974 80.309 -20.1483 -0.145201 -0.19022 57.8912 1.08816 -2.40341 29.3758 -0.771595 1.23115 -0.209183 6.87108 -90.4164 13.1294 -0.615432 -0.756764 1.45843 -0.648154 -0.728953 -21.0755 -0.359554 -0.906732 -1.06282 -0.359558 -0.906732 89.0464 -58.5681 -100.316 15.2677 37.2177 -45.1728 -16.2417 -5.33288 -85.3376 -0.763359 0.887352 -0.259465 -99.2832 -54.0506 66.4423 -6.23204 20.5302 -38.3227 9.77277 1.13779 -109.228 6.20245 -0.0797706 3.38352 -12.6408 -18.5933 -15.3396 -6.97105 -18.2536 0.661943 
32.4752 92.3228 158.69 98.7078 -56.8209 99.5385 -172.909 5.84833 96.7675 -28.3286 18.6723 -0.715553 64.716 4.62416 15.0504 35.6908 2.52128 11.8027 172.462 18.632 79.0122 -21.0469 -0.329383 -0.290842 59.0014 0.250876 -1.32639 28.3808 0.469508 -0.657018 -0.247762 6.97315 -90.3004 12.9253 -0.635994 -0.524108 1.25438 -0.658436 -0.495614 -21.2806 -0.449082 -0.691015 -1.26798 -0.449083 -0.691017 89.1211 -58.5883 -100.209 16.2158 37.9219 -45.7154 -16.7743 -6.05665 -86.2781 -1.06484 0.959362 0.946455 -99.6438 -54.2837 66.0178 -5.91566 20.575 -38.4121 9.05164 1.41861 -109.041 7.52236 0.228964 2.8257 -13.3299 -18.7496 -15.1238 -5.5794 -18.4853 -0.754874 
32.486 92.3214 158.699 98.5459 -56.9072 99.5137 -172.935 5.92172 96.8863 -28.3048 18.782 -0.672116 65.2173 5.59244 15.396 35.6546 2.45262 11.8241 172.43 18.7123 79.099 -20.9778 -0.347969 -0.21026 58.9206 0.293828 -1.31459 28.336 0.406502 -0.416299 -0.221342 6.96819 -90.3294 12.9405 -0.597483 -0.585909 1.26957 -0.622687 -0.559052 -21.2651 -0.39378 -0.738387 -1.25244 -0.393791 -0.738392 89.1905 -58.5934 -100.111 16.0351 37.9443 -45.7231 -16.8965 -5.97387 -86.258 -1.73672 0.807287 1.22883 -99.9363 -54.4334 65.6629 -5.98632 20.0113 -38.3737 8.9723 1.96605 -109.07 7.25284 0.226725 2.49001 -13.5337 -18.8442 -15.2471 -5.31664 -18.6128 -0.460928 
32.4823 92.3073 158.687 98.3786 -56.7976 99.3298 -172.995 6.08036 96.8217 -28.3728 18.4375 -0.661519 65.1105 5.36225 15.0381 35.904 2.90126 11.715 172.438 18.7825 79.0479 -21.0312 -0.540457 -0.214883 58.9387 0.328963 -1.51916 28.4838 0.423218 -0.68969 -0.210593 6.96893 -90.3592 12.9586 -0.590335 -0.645408 1.2876 -0.618149 -0.618821 -21.2468 -0.369083 -0.792991 -1.23413 -0.369081 -0.792995 89.3871 -58.2959 -99.9 16.2775 38.3247 -45.7439 -16.598 -6.18708 -86.3862 -0.992974 0.992712 1.04334 -100.784 -55.0172 64.6934 -5.27199 20.0895 -38.3838 9.07497 1.65162 -109.11 7.57251 0.24969 2.72672 -13.4039 -18.7765 -15.4913 -5.19725 -18.5253 0.33769 
32.4995 92.2998 158.712 98.5114 -56.897 99.457 -172.882 5.95273 96.8602 -28.2796 18.236 -0.722422 65.0839 5.29442 15.1326 35.8899 3.08634 11.3632 172.523 18.7027 79.0801 -20.9797 -0.456686 -0.286844 58.9656 0.297547 -1.52888 28.4166 0.371142 -0.44506 -0.17167 6.96935 -90.3851 12.9514 -0.525452 -0.705351 1.28041 -0.555988 -0.681551 -21.2535 -0.289193 -0.830653 -1.24089 -0.289192 -0.830665 89.4384 -58.3006 -99.8277 15.8688 38.4193 -45.545 -16.4686 -5.80064 -85.9945 -1.15587 0.885697 0.579782 -101.5 -55.4303 63.8563 -4.83603 19.3775 -38.3477 8.33546 2.41005 -109.311 7.57208 0.22973 2.87969 -14.07 -18.9659 -14.6663 -4.91955 -18.8221 -1.15383 
32.5094 92.3175 158.721 98.4507 -56.8553 99.4687 -172.918 6.00494 96.9095 -28.329 18.2746 -0.676527 65.1985 5.5009 15.6038 35.5603 2.8424 10.9281 172.542 18.6342 79.1337 -20.8905 -0.632921 -0.284064 58.8557 0.399209 -1.63387 28.517 0.332896 -0.497408 -0.139664 6.96791 -90.4257 12.9472 -0.481418 -0.792179 1.27607 -0.515831 -0.770219 -21.2574 -0.221094 -0.900225 -1.2447 -0.221098 -0.900238 89.5545 -58.2388 -99.6786 15.3946 38.4467 -45.35 -15.8939 -5.02358 -85.3903 -0.325983 0.940226 -0.737685 -102.501 -56.0146 62.7058 -4.10736 19.0179 -38.4054 8.18849 2.50834 -109.243 7.3596 0.222573 2.65718 -14.0322 -18.9433 -15.2758 -4.46107 -18.7862 -0.0756126 
32.5138 92.3154 158.725 98.2912 -56.7733 99.3247 -173.013 6.05557 96.8452 -28.3567 18.4721 -0.605502 64.9266 4.94827 15.5746 35.8331 3.41892 10.6414 172.518 18.7325 79.1172 -21.0156 -0.663966 -0.257935 58.8778 0.386592 -1.6889 28.5314 0.403535 -0.710918 -0.100722 6.9648 -90.4599 12.9411 -0.420646 -0.86868 1.26989 -0.45844 -0.849341 -21.263 -0.140131 -0.954926 -1.25038 -0.14012 -0.954936 89.7495 -58.2073 -99.4131 14.934 38.5985 -45.2383 -15.9069 -4.84617 -85.4198 -0.559386 0.947045 -0.215692 -103.775 -56.7094 61.2472 -3.18907 18.3489 -38.6345 7.33319 3.23257 -109.106 7.56334 0.243922 2.75846 -14.2084 -19.1347 -15.23 -4.10816 -19.0047 0.0403404 
32.5662 92.3144 158.773 98.6282 -56.9271 99.6504 -172.92 5.92536 96.9413 -28.4977 18.3489 -0.643415 65.5316 5.97274 16.1256 35.0478 2.12261 10.8337 172.554 18.3896 79.183 -20.6294 -0.679135 -0.334995 58.8902 0.273376 -1.89586 28.4711 0.291333 -0.313947 -0.0662408 6.96055 -90.4992 12.9502 -0.370994 -0.953336 1.279 -0.412607 -0.936092 -21.2534 -0.0673466 -1.02077 -1.24075 -0.0673627 -1.02076 89.8197 -57.9849 -99.36 14.7864 38.8715 -44.8994 -16.2503 -5.209 -85.62 -0.95883 0.815331 -0.407402 -104.33 -57.0129 60.6203 -3.15031 18.399 -38.2678 7.41672 3.18548 -109.179 7.77296 0.296279 2.6307 -15.2218 -19.3232 -14.5261 -3.47154 -19.3568 -1.2095 
32.6902 92.3209 158.782 98.7077 -56.8585 99.5631 -172.977 5.69584 96.7095 -28.2776 18.2434 -0.650544 65.2725 5.551 15.5384 35.5866 2.70431 11.2296 172.218 18.5612 78.9043 -21.0307 -0.936174 -0.18208 58.9918 0.226322 -1.58011 28.5094 0.402403 -0.673299 -0.0255097 6.96998 -90.5196 12.9315 -0.29973 -1.00267 1.26019 -0.343554 -0.988517 -21.2719 0.0154454 -1.04639 -1.25922 0.0154501 -1.04639 89.9674 -57.804 -99.1897 14.5343 39.3963 -44.6469 -15.9467 -5.25912 -85.8619 -0.942045 0.819996 -0.406244 -105.705 -57.7332 59.0752 -2.23126 17.9951 -38.2598 7.24004 3.3826 -109.181 7.74201 0.297174 2.58368 -15.3375 -19.4509 -13.9266 -3.66336 -19.5114 -2.08363 
32.6883 92.3291 158.794 98.7405 -56.8471 99.5837 -172.989 5.68568 96.7094 -28.2911 18.23 -0.630748 65.2907 5.58459 15.8385 35.4835 2.77136 10.8506 172.236 18.5523 78.9109 -21.0529 -0.673431 -0.20655 58.9939 0.174511 -1.3901 28.4876 0.370334 -0.55276 0.0332615 6.9868 -90.5493 12.8982 -0.197143 -1.07464 1.22679 -0.244262 -1.06494 -21.3048 0.134922 -1.08421 -1.29217 0.134911 -1.08422 90.2406 -57.7734 -98.8129 14.197 39.7561 -44.5257 -15.6206 -5.0978 -85.924 -0.981674 0.793346 -0.531179 -106.907 -58.2895 57.7184 -1.48268 17.4651 -38.5956 6.86244 4.01185 -108.978 7.51073 0.265691 2.52543 -15.5026 -19.5672 -14.6491 -2.80302 -19.6408 -1.02451 
32.6672 92.3161 158.83 98.8221 -56.8628 99.6985 -172.924 5.64673 96.8004 -28.315 18.1697 -0.642742 65.4467 5.89298 16.1982 35.0696 2.3862 10.4458 172.264 18.5134 78.9692 -21.0746 -0.460724 -0.219926 59.035 0.0882481 -1.24693 28.6077 0.292779 -0.530082 0.0643967 6.98457 -90.6034 12.9023 -0.161393 -1.18701 1.23083 -0.213471 -1.17877 -21.3 0.202785 -1.18064 -1.28738 0.20277 -1.18065 90.2943 -57.4109 -98.8085 14.0358 40.0404 -44.2958 -15.1243 -5.08237 -86.0059 -1.37807 0.740216 -0.116992 -108.251 -58.9791 56.2528 -0.801343 17.2055 -38.3908 6.4637 4.08977 -109.121 7.75797 0.274136 2.78172 -15.8022 -19.6371 -15.0474 -1.63703 -19.7275 0.410252 
32.738 92.2984 158.82 98.6837 -56.6443 99.4466 -173.068 5.57534 96.5532 -28.1692 18.0315 -0.553153 65.0078 5.14796 15.0108 36.002 3.40833 11.105 172.175 18.6771 78.7541 -21.4701 -0.945942 -0.210343 59.0986 0.187696 -1.42433 28.7793 0.351834 -0.957702 0.081601 6.96703 -90.617 12.9375 -0.133931 -1.21753 1.26602 -0.187375 -1.21046 -21.2647 0.238163 -1.2015 -1.25202 0.238161 -1.2015 90.4734 -57.4335 -98.5518 13.2015 40.1594 -43.829 -14.9075 -4.92086 -86.0112 -1.43526 0.746829 0.0583755 -109.354 -59.4341 55.0222 -0.37533 17.1023 -38.2736 6.47997 4.28359 -109.066 7.79733 0.313404 2.52915 -16.1603 -19.6362 -14.1584 -2.11104 -19.8142 -1.15748 
32.7435 92.303 158.871 98.8307 -56.7284 99.6167 -173.011 5.60099 96.6718 -28.3748 18.2396 -0.587185 65.5258 5.99011 15.2462 35.5126 2.19004 11.8959 172.187 18.5371 78.8251 -21.2978 -1.21326 -0.213283 59.0031 0.265453 -1.9216 28.846 0.192055 -0.627371 0.115971 6.99342 -90.6623 12.8846 -0.0871456 -1.31372 1.21304 -0.144865 -1.30862 -21.317 0.311694 -1.27919 -1.30433 0.311678 -1.2792 90.6348 -57.0987 -98.3886 13.5633 40.5081 -44.2754 -15.188 -5.27048 -86.1218 -1.69978 0.682432 0.135514 -110.499 -59.9901 53.7963 0.208181 16.8626 -38.3191 5.77081 4.53334 -109.155 7.80943 0.278907 2.81399 -16.1534 -19.7482 -13.9775 -1.60604 -19.9196 -0.788945 
32.7946 92.2709 158.899 98.8095 -56.6143 99.5102 -173.081 5.55534 96.5615 -28.4026 18.4595 -0.56318 65.4659 5.93024 15.3679 35.574 2.27452 11.9136 172.211 18.5555 78.7123 -21.4922 -1.33711 -0.281151 59.172 0.16195 -2.00984 28.8018 0.244785 -0.702311 0.134942 7.01199 -90.6794 12.8476 -0.0574476 -1.35138 1.17597 -0.116851 -1.34755 -21.3538 0.351323 -1.30619 -1.34116 0.351317 -1.30619 90.8144 -57.0012 -98.1532 13.6974 40.879 -44.5765 -15.5143 -5.95896 -86.8029 -2.90641 0.486664 1.28623 -111.492 -60.4106 52.7206 0.963279 16.674 -38.4529 5.65072 4.70516 -109.136 8.34653 0.359412 2.9069 -16.1834 -19.786 -13.7123 -1.45452 -19.9671 -0.995716 
